<svg width="234" height="100" viewBox="0 0 234 100" fill="none" xmlns="http://www.w3.org/2000/svg">
<path d="M156.857 18.2339H161.98H181.57C186.563 18.2339 190.611 22.2964 190.611 27.3078V63.3955C190.611 63.6773 190.383 63.9058 190.101 63.9058H182.08C181.798 63.9058 181.57 63.6773 181.57 63.3955V52.6767C181.57 52.113 181.113 51.6561 180.549 51.6561H161.795C161.232 51.6561 160.775 52.113 160.775 52.6767V63.3955C160.775 63.6773 160.546 63.9058 160.265 63.9058H152.244C151.962 63.9058 151.734 63.6773 151.734 63.3955V51.6561C151.734 46.6447 155.781 42.5822 160.775 42.5822H180.549C181.113 42.5822 181.57 42.1252 181.57 41.5616V28.3284C181.57 27.7647 181.113 27.3078 180.549 27.3078H157.155C156.971 27.3078 156.801 27.2087 156.71 27.0484L151.734 18.2339H156.857Z" fill="white"/>
<path d="M228.736 18.2339H223.612H205.68C200.687 18.2339 196.639 22.2964 196.639 27.3078V54.8319C196.639 59.8433 200.687 63.9058 205.68 63.9058H233.349C233.63 63.9058 233.859 63.6773 233.859 63.3955V55.3422C233.859 55.0604 233.63 54.8319 233.349 54.8319H206.701C206.137 54.8319 205.68 54.375 205.68 53.8113V28.3284C205.68 27.7647 206.137 27.3078 206.701 27.3078H228.438C228.622 27.3078 228.791 27.2087 228.882 27.0484L233.731 18.4597C233.788 18.3589 233.716 18.2339 233.6 18.2339H228.736Z" fill="white"/>
<path fill-rule="evenodd" clip-rule="evenodd" d="M116.02 18.2339H110.897H105.773L110.897 27.3078L110.897 63.3955C110.897 63.6773 111.125 63.9058 111.407 63.9058H119.428C119.71 63.9058 119.938 63.6773 119.938 63.3955V53.4708H139.076C144.069 53.4708 148.117 49.4083 148.117 44.3969V27.3078C148.117 22.2964 144.069 18.2339 139.076 18.2339H116.02ZM137.8 27.3078H121.214H119.938V28.5835V43.1212V44.3969H121.214H137.8C138.505 44.3969 139.076 43.8258 139.076 43.1212V28.5835C139.076 27.879 138.504 27.3078 137.8 27.3078Z" fill="white"/>
<path d="M112.382 80.9077C112.114 80.9077 111.867 80.8428 111.64 80.7131C111.421 80.5834 111.247 80.4091 111.117 80.1902C110.987 79.9632 110.922 79.7159 110.922 79.4484V73.6112C110.922 73.3436 110.987 73.1004 111.117 72.8815C111.247 72.6545 111.421 72.4761 111.64 72.3464C111.867 72.2167 112.114 72.1519 112.382 72.1519H118.221C118.489 72.1519 118.732 72.2167 118.951 72.3464C119.178 72.4761 119.357 72.6545 119.487 72.8815C119.616 73.1004 119.681 73.3436 119.681 73.6112V73.9638H118.696V73.6112C118.696 73.4814 118.647 73.372 118.55 73.2828C118.461 73.1855 118.351 73.1369 118.221 73.1369H112.382C112.252 73.1369 112.139 73.1855 112.041 73.2828C111.952 73.372 111.907 73.4814 111.907 73.6112V79.4484C111.907 79.5781 111.952 79.6916 112.041 79.7889C112.139 79.8781 112.252 79.9226 112.382 79.9226H118.221C118.351 79.9226 118.461 79.8781 118.55 79.7889C118.647 79.6916 118.696 79.5781 118.696 79.4484V77.2837H116.53V76.2865H119.681V79.4484C119.681 79.7159 119.616 79.9632 119.487 80.1902C119.357 80.4091 119.178 80.5834 118.951 80.7131C118.732 80.8428 118.489 80.9077 118.221 80.9077H112.382Z" fill="#FFF100"/>
<path d="M123.234 80.9077V73.6112C123.234 73.3436 123.299 73.1004 123.429 72.8815C123.559 72.6545 123.733 72.4761 123.952 72.3464C124.179 72.2167 124.427 72.1519 124.694 72.1519H130.534C130.801 72.1519 131.045 72.2167 131.264 72.3464C131.491 72.4761 131.669 72.6545 131.799 72.8815C131.929 73.1004 131.994 73.3436 131.994 73.6112V80.9077H131.008V77.7094H124.22V80.9077H123.234ZM124.22 76.7243H131.008V73.6112C131.008 73.4814 130.96 73.372 130.862 73.2828C130.773 73.1855 130.664 73.1369 130.534 73.1369H124.694C124.565 73.1369 124.451 73.1855 124.354 73.2828C124.265 73.372 124.22 73.4814 124.22 73.6112V76.7243Z" fill="#FFF100"/>
<path d="M135.57 80.9077V72.1519H136.92L140.557 76.4811L144.195 72.1519H145.545V80.9077H144.56V73.2707L140.557 78.0256L136.555 73.2707V80.9077H135.57Z" fill="#FFF100"/>
<path d="M149.07 80.9077V72.1519H157.063V73.1369H150.055V76.0312H155.688V77.0284H150.055V79.9226H157.063V80.9077H149.07Z" fill="#FFF100"/>
<path d="M167.514 80.9077C167.246 80.9077 166.999 80.8428 166.772 80.7131C166.553 80.5834 166.378 80.4091 166.249 80.1902C166.119 79.9632 166.054 79.7159 166.054 79.4484V73.6112C166.054 73.3436 166.119 73.1004 166.249 72.8815C166.378 72.6545 166.553 72.4761 166.772 72.3464C166.999 72.2167 167.246 72.1519 167.514 72.1519H174.789V73.1369H167.514C167.384 73.1369 167.271 73.1855 167.173 73.2828C167.084 73.372 167.039 73.4814 167.039 73.6112V79.4484C167.039 79.5781 167.084 79.6916 167.173 79.7889C167.271 79.8781 167.384 79.9226 167.514 79.9226H174.789V80.9077H167.514Z" fill="#FFF100"/>
<path d="M178.271 80.9077V72.1519H186.264V73.1369H179.257V76.0312H184.889V77.0284H179.257V79.9226H186.264V80.9077H178.271Z" fill="#FFF100"/>
<path d="M189.751 80.9077V72.1519H191.101L197.525 79.7889V72.1519H198.51V80.9077H197.16L190.736 73.2707V80.9077H189.751Z" fill="#FFF100"/>
<path d="M205.518 80.9077V73.1369H201.625V72.1519H210.384V73.1369H206.503V80.9077H205.518Z" fill="#FFF100"/>
<path d="M213.508 80.9077V72.1519H221.501V73.1369H214.493V76.0312H220.126V77.0284H214.493V79.9226H221.501V80.9077H213.508Z" fill="#FFF100"/>
<path d="M232.384 80.9077L229.525 77.5026H230.815L233.686 80.8955V80.9077H232.384ZM224.988 80.9077V72.164H232.287C232.555 72.164 232.798 72.2329 233.017 72.3708C233.244 72.5005 233.422 72.6748 233.552 72.8937C233.682 73.1126 233.747 73.3558 233.747 73.6233V76.1893C233.747 76.4568 233.682 76.7 233.552 76.9189C233.422 77.1378 233.244 77.3162 233.017 77.454C232.798 77.5837 232.555 77.6486 232.287 77.6486H225.973V80.9077H224.988ZM226.447 76.6514H232.287C232.417 76.6514 232.526 76.6068 232.615 76.5176C232.713 76.4284 232.761 76.319 232.761 76.1893V73.6233C232.761 73.4936 232.713 73.3842 232.615 73.295C232.526 73.1977 232.417 73.149 232.287 73.149H226.447C226.318 73.149 226.204 73.1977 226.107 73.295C226.018 73.3842 225.973 73.4936 225.973 73.6233V76.1893C225.973 76.319 226.018 76.4284 226.107 76.5176C226.204 76.6068 226.318 76.6514 226.447 76.6514Z" fill="#FFF100"/>
<path fill-rule="evenodd" clip-rule="evenodd" d="M49.1118 33.6735C50.6149 30.7297 51.3968 27.4517 51.3675 24.1124C51.3276 19.5706 49.7895 15.1688 46.9914 11.5889C44.1933 8.00901 40.2915 5.45095 35.8906 4.31109C31.4896 3.17123 26.8352 3.5132 22.6486 5.28401C18.4619 7.05482 14.9767 10.1556 12.733 14.1059C10.4893 18.0562 9.61229 22.6355 10.238 27.1342C10.8636 31.633 12.957 35.8 16.1937 38.9896C18.5735 41.3348 21.4738 43.0553 24.6358 44.0259L26.6144 28.2178C27.1982 23.5527 32.6129 21.2625 36.3724 24.0905L49.1118 33.6735ZM51.4896 36.744C50.765 37.9511 49.1526 38.1705 48.0271 37.3238L34.2241 26.9407C32.6576 25.7624 30.4015 26.7166 30.1582 28.6604L28.0145 45.7884C27.8397 47.185 26.5598 48.189 25.1879 47.8686C20.8588 46.8576 16.874 44.6716 13.6856 41.5297C9.88949 37.7888 7.43429 32.9015 6.70048 27.6252C5.96667 22.349 6.9952 16.9782 9.62672 12.3451C12.2582 7.71203 16.3458 4.07531 21.2561 1.99843C26.1664 -0.0784407 31.6253 -0.479513 36.7869 0.857362C41.9485 2.19424 46.5247 5.19442 49.8064 9.39305C53.088 13.5917 54.892 18.7543 54.9388 24.0811C54.9781 28.555 53.7759 32.9349 51.4896 36.744Z" fill="white"/>
<path fill-rule="evenodd" clip-rule="evenodd" d="M53.9975 66.2859C55.7979 69.0583 58.2486 71.3737 61.158 73.018C65.1152 75.2544 69.7001 76.1246 74.2025 75.4937C78.7049 74.8629 82.8733 72.7662 86.0619 69.5286C89.2505 66.291 91.2813 62.0931 91.8395 57.5856C92.3978 53.078 91.4523 48.5123 89.1497 44.596C86.8471 40.6796 83.3159 37.6313 79.1032 35.9232C74.8905 34.2152 70.2315 33.9428 65.8481 35.1483C62.6252 36.0346 59.6835 37.6835 57.2611 39.9339L68.2195 48.2216C72.7533 51.6505 71.8809 58.6947 66.6473 60.9163L53.9975 66.2859ZM50.7953 67.905C49.6732 66.1159 50.6043 63.8496 52.5494 63.024L65.2506 57.6325C67.9577 56.4834 68.4089 52.8398 66.0638 51.0663L55.0609 42.745C53.3759 41.4706 53.0258 39.046 54.5504 37.584C57.4433 34.8101 60.9958 32.7821 64.9002 31.7083C70.0412 30.2945 75.5054 30.6139 80.4463 32.6172C85.3871 34.6205 89.5287 38.1957 92.2293 42.789C94.9299 47.3822 96.0387 52.737 95.384 58.0237C94.7292 63.3103 92.3475 68.2337 88.6078 72.0309C84.868 75.8281 79.9791 78.2872 74.6986 79.0271C69.418 79.767 64.0406 78.7464 59.3995 76.1234C55.8748 74.1314 52.9242 71.2997 50.7953 67.905Z" fill="#FFF100"/>
<path fill-rule="evenodd" clip-rule="evenodd" d="M44.528 70.3053C45.2594 73.5282 45.2095 76.8976 44.3582 80.1269C43.2004 84.5191 40.6249 88.4073 37.0308 91.1889C33.4367 93.9705 29.0247 95.4902 24.4783 95.5127C19.9319 95.5352 15.505 94.0591 11.8835 91.3132C8.26202 88.5673 5.64815 84.7048 4.44689 80.3243C3.24564 75.9437 3.52406 71.2897 5.23903 67.0833C6.954 62.8769 10.0098 59.3529 13.9329 57.0574C16.8173 55.3697 20.0523 54.4153 23.3562 54.2522L21.3785 70.0605C20.7948 74.7256 25.4785 78.2769 29.8192 76.4605L44.528 70.3053ZM47.5892 67.9141C47.1844 66.5659 45.6756 65.9568 44.3761 66.5006L28.4393 73.1696C26.6307 73.9265 24.6792 72.4468 24.9224 70.503L27.0652 53.3749C27.2399 51.9783 26.2468 50.6904 24.8382 50.6635C20.3932 50.5788 15.9923 51.7175 12.1279 53.9787C7.52672 56.6709 3.94279 60.804 1.93141 65.7374C-0.0799766 70.6709 -0.406529 76.1293 1.00235 81.267C2.41123 86.4046 5.47688 90.9347 9.7243 94.1552C13.9717 97.3757 19.1638 99.1069 24.4959 99.0806C29.8281 99.0542 35.0028 97.2718 39.2181 94.0094C43.4334 90.747 46.454 86.1869 47.8119 81.0355C48.9524 76.709 48.8665 72.1682 47.5892 67.9141Z" fill="white"/>
<path d="M60.78 51.5155C62.3295 52.7006 62.0275 55.1142 60.2336 55.8818L33.0197 67.5261C31.2089 68.3009 29.2396 66.8201 29.484 64.8673L33.1908 35.2444C33.4352 33.2916 35.7087 32.3406 37.2729 33.5369L60.78 51.5155Z" fill="white"/>
</svg>
