<svg width="345" height="345" viewBox="0 0 345 345" fill="none" xmlns="http://www.w3.org/2000/svg">
<path d="M248.992 177.798L167.608 141.628L167.608 141.301L167.608 139.205L167.609 131.461C167.61 124.901 167.612 115.792 167.613 105.592C167.616 86.0318 167.619 62.4622 167.619 45.175L248.992 177.798Z" fill="#ED1C24" stroke="#404040" stroke-width="1.23811"/>
<path d="M166.38 141.629L84.9961 177.799L166.38 45.1749V141.629Z" fill="#ED1C24" stroke="#404040" stroke-width="1.23811"/>
<path d="M167.619 241.431L248.209 193.675L167.619 301.126V241.431Z" fill="#ED1C24" stroke="#404040" stroke-width="1.23811"/>
<path d="M85.7901 193.675L166.38 241.431V301.126L85.7901 193.675Z" fill="#ED1C24" stroke="#404040" stroke-width="1.23811"/>
<path d="M167.619 142.984L249.146 179.217L167.619 221.489V142.984Z" fill="#ED1C24" stroke="#404040" stroke-width="1.23811"/>
<path d="M166.38 142.984V221.489L84.8535 179.217L166.38 142.984Z" fill="#ED1C24" stroke="#404040" stroke-width="1.23811"/>
<path d="M83.7353 191.378V179.683L166.857 222.782L166.999 222.856L167.142 222.782L250.263 179.683V191.378L166.999 240.719L83.7353 191.378Z" fill="white" stroke="#404040" stroke-width="0.619056"/>
</svg>
