<svg width="345" height="345" viewBox="0 0 345 345" fill="none" xmlns="http://www.w3.org/2000/svg">
<rect width="345" height="345" fill="#0D0D0D"/>
<path fill-rule="evenodd" clip-rule="evenodd" d="M188.775 77.75C184.999 77.3581 176.098 77.253 172.579 77.5027H172.564C162.443 78.2746 153.009 80.5332 143.759 84.1783C140.176 85.5863 133.215 89.0456 129.822 91.1011C104.563 106.412 87.8859 131.975 84.3592 161.071C81.8123 182.108 86.294 203.343 97.1004 221.399H97.1017C105.21 234.919 116.278 246.078 129.823 254.282C133.217 256.338 140.18 259.798 143.762 261.205H143.763C148.112 262.911 153.11 264.464 157.216 265.408C169.975 268.337 182.714 268.824 195.389 266.644C218.345 262.711 239.07 250.314 253.678 232.03C255.062 230.308 256.667 228.116 257.9 226.344C258.106 226.047 258.304 225.782 258.491 225.532C258.729 225.213 258.95 224.917 259.146 224.613L287.88 242.414C273.316 264.543 252.167 281.603 227.384 291.121C201.676 300.995 173.452 302.399 146.973 294.83C120.494 287.261 97.1978 271.304 80.6006 249.337C64.0034 227.37 55.0067 200.466 54.9685 172.939C54.9303 145.412 63.8529 118.553 80.3891 96.5405C96.9253 74.5278 120.178 58.6901 146.635 51.0476C173.093 43.4052 201.32 44.4593 227.056 54.2618C251.865 63.7117 273.061 80.6337 287.687 102.722L259.114 120.77C258.991 120.58 258.858 120.364 258.717 120.136C258.454 119.709 258.162 119.236 257.853 118.792C256.591 116.983 254.943 114.896 253.5 113.106C247.222 105.283 239.822 98.3899 231.348 92.8318H231.346C218.469 84.4004 204.173 79.3382 188.775 77.75ZM290.561 243.897C291.048 243.157 291.528 242.428 292 241.673L181.867 172.692L219.029 149.451L291.809 103.711C291.291 102.888 290.765 102.093 290.231 101.284L290.2 101.238C275.231 78.6053 253.524 61.2214 228.113 51.5421C201.776 41.5103 172.888 40.2595 145.811 48.0807C118.735 55.9019 94.9384 72.2821 78.0154 94.8098C61.0923 117.337 51.9611 144.768 52.0001 172.939C52.0392 201.11 61.2464 228.587 78.2318 251.068C95.2172 273.549 119.059 289.804 146.157 297.55C173.255 305.296 202.14 304.193 228.449 294.088C253.834 284.339 275.492 266.819 290.398 244.145L290.561 243.897ZM210.314 115.578C214.685 115.578 218.229 119.121 218.229 123.49C218.229 127.86 214.685 131.402 210.314 131.402C205.942 131.402 202.398 127.86 202.398 123.49C202.398 119.121 205.942 115.578 210.314 115.578Z" fill="#FFF100"/>
</svg>
