<svg width="44" height="44" viewBox="0 0 44 44" fill="none" xmlns="http://www.w3.org/2000/svg">
<path d="M22 44C34.1503 44 44 34.1503 44 22C44 9.84974 34.1503 0 22 0C9.84974 0 0 9.84974 0 22C0 34.1503 9.84974 44 22 44Z" fill="#0332FF"/>
<path fill-rule="evenodd" clip-rule="evenodd" d="M30.4691 17.4546C30.9455 17.4546 31.4219 17.6513 31.7554 17.9955C32.0412 18.3397 32.2794 18.7822 32.2794 19.3231V25.2239C32.2794 25.7157 32.0412 26.2074 31.7554 26.5516H31.7077C31.4219 26.8958 30.9455 27.0925 30.4691 27.0925C29.9927 27.0925 29.5162 26.8958 29.1828 26.5516V26.5024C28.8493 26.1582 28.6587 25.7157 28.6587 25.2239V19.3231C28.6587 18.7822 28.8969 18.3397 29.1828 17.9955C29.5162 17.6513 29.9927 17.4546 30.4691 17.4546Z" fill="#FEFEFE"/>
<path fill-rule="evenodd" clip-rule="evenodd" d="M13.5565 17.4546C14.0329 17.4546 14.4616 17.6513 14.7951 17.9955C15.1286 18.3397 15.3192 18.7822 15.3192 19.3231V25.2239C15.3192 25.7157 15.1286 26.2074 14.7951 26.5516C14.4616 26.8958 14.0329 27.0925 13.5565 27.0925C13.0324 27.0925 12.6036 26.8958 12.2701 26.5516C11.9367 26.2074 11.7461 25.7648 11.7461 25.2239V19.3231C11.7461 18.7822 11.9367 18.3397 12.2701 17.9955C12.6036 17.6513 13.0324 17.4546 13.5565 17.4546Z" fill="#FEFEFE"/>
<path fill-rule="evenodd" clip-rule="evenodd" d="M28.4185 17.9463V27.3876C28.4185 27.9776 28.1803 28.5185 27.7992 28.9119C27.4657 29.2561 26.9416 29.502 26.3699 29.502H26.227V32.6491C26.227 33.1408 25.9888 33.5834 25.7029 33.9276H25.6553C25.3695 34.2718 24.893 34.4685 24.4166 34.4685C23.9402 34.4685 23.4638 34.2718 23.1303 33.9276C22.7968 33.5834 22.6063 33.1408 22.6063 32.6491V29.502H21.3676V32.6491C21.3676 33.1408 21.177 33.6326 20.8435 33.9276C20.5101 34.2718 20.0813 34.4685 19.6049 34.4685C19.0808 34.4685 18.6521 34.2718 18.3186 33.9276C17.9851 33.5834 17.7945 33.1408 17.7945 32.6491V29.502H17.6516C17.0799 29.502 16.5558 29.2561 16.1747 28.9119V28.8628C15.7936 28.4694 15.603 27.9776 15.603 27.3876V17.9463C15.603 17.7004 15.7936 17.4546 16.0794 17.4546H27.9421C28.2279 17.4546 28.4185 17.7004 28.4185 17.9463Z" fill="#FEFEFE"/>
<path fill-rule="evenodd" clip-rule="evenodd" d="M21.9869 10.5701C22.8445 10.5701 23.702 10.7668 24.4643 11.0619L25.4647 9.73418C25.6077 9.48831 25.8935 9.48831 26.1317 9.63583C26.3223 9.78335 26.3699 10.1276 26.227 10.3243L25.3218 11.5044C25.6553 11.7503 25.9888 11.9961 26.3223 12.2912C27.4657 13.373 28.2279 14.8482 28.3708 16.5693C28.4185 16.8151 28.2279 17.061 27.9897 17.061H27.9421V17.1102H16.0794C15.8412 17.1102 15.603 16.8643 15.603 16.6184C15.603 16.5693 15.603 16.5201 15.603 16.5201C15.7936 14.8482 16.5558 13.373 17.6992 12.2912C17.9374 12.0945 18.1756 11.8978 18.4138 11.7011L17.4134 10.3243C17.2228 10.1276 17.2705 9.78335 17.461 9.63583C17.6992 9.48831 17.9851 9.48831 18.128 9.73418L19.2714 11.2094C20.0813 10.816 21.0341 10.5701 21.9869 10.5701ZM19.9384 13.373C20.3671 13.373 20.7006 13.7172 20.7006 14.1598C20.7006 14.6023 20.3671 14.9465 19.9384 14.9465C19.5096 14.9465 19.1285 14.6023 19.1285 14.1598C19.1285 13.7172 19.5096 13.373 19.9384 13.373ZM24.0831 13.373C24.5119 13.373 24.8454 13.7172 24.8454 14.1598C24.8454 14.6023 24.5119 14.9465 24.0831 14.9465C23.6544 14.9465 23.3209 14.6023 23.3209 14.1598C23.3209 13.7172 23.6544 13.373 24.0831 13.373Z" fill="#FEFEFE"/>
</svg>
