<svg width="44" height="44" viewBox="0 0 44 44" fill="none" xmlns="http://www.w3.org/2000/svg">
<path d="M22 44C34.1503 44 44 34.1503 44 22C44 9.84974 34.1503 0 22 0C9.84974 0 0 9.84974 0 22C0 34.1503 9.84974 44 22 44Z" fill="#0332FF"/>
<path d="M34.8224 22.0027C34.8224 29.0904 29.0767 34.8361 21.9891 34.8361C14.9014 34.8361 9.15573 29.0904 9.15573 22.0027C9.15573 14.9151 14.9014 9.1694 21.9891 9.1694C29.0767 9.1694 34.8224 14.9151 34.8224 22.0027Z" stroke="white" stroke-width="0.733333"/>
<path d="M27.742 17.8017C27.9947 20.605 27.9281 23.4174 27.5481 26.2022H34.5048C35.4172 23.5872 35.4172 20.4166 34.5048 17.8017H27.742ZM16.2367 17.8017H9.47333C8.56097 20.4166 8.56097 23.5872 9.47333 26.2022H16.4312C16.0505 23.4182 15.9853 20.6002 16.2367 17.8017ZM17.8322 27.4023C18.2823 29.986 19.0266 32.6082 20.0578 35.0599C20.6887 35.1529 21.3333 35.2027 21.9894 35.2027C22.6454 35.2027 23.2901 35.1529 23.9209 35.0599C24.9527 32.6082 25.6976 29.9878 26.1478 27.4023H17.8322ZM34.0342 16.6016C33.2755 14.9194 32.1741 13.4141 30.8003 12.1817C29.4265 10.9493 27.8106 10.017 26.0559 9.44433L26.4305 10.7548C26.9785 12.6697 27.3757 14.6246 27.6183 16.6016H34.0342ZM17.6425 26.2022H26.3374C26.7294 23.4198 26.7966 20.6056 26.5355 17.8017H17.4438C17.1829 20.6 17.2496 23.4193 17.6425 26.2022ZM26.4065 16.6016C26.122 14.115 25.4263 11.5061 24.7042 9.0831C22.9138 8.70928 21.0655 8.70928 19.2751 9.0831L18.7031 11.0842C18.1868 12.892 17.809 14.7365 17.5729 16.6016H26.4065ZM16.6137 27.4023H9.94451C11.5681 31.0067 14.7608 33.7572 18.6503 34.7743C17.6965 32.388 17.0429 29.89 16.6137 27.4023ZM25.5535 34.2103L25.3279 34.7743C29.2174 33.7572 32.4106 31.0067 34.0342 27.4023H27.3662C26.9738 29.7227 26.367 32.0018 25.5535 34.2103ZM16.3604 16.6016C16.6377 14.2092 17.2217 11.7773 17.9228 9.44433C16.1681 10.017 14.5522 10.9493 13.1785 12.1817C11.8047 13.4141 10.7032 14.9194 9.94451 16.6016H16.3604Z" fill="white"/>
</svg>
