<svg width="48" height="48" viewBox="0 0 48 48" fill="none" xmlns="http://www.w3.org/2000/svg">
<rect width="48" height="48" rx="10" fill="#FFF100"/>
<path d="M31.9093 35.9964C31.9093 35.9964 30.8851 34.7679 30.0315 33.6824C32.0938 33.1948 33.9179 31.9907 35.1812 30.2829C34.1575 30.9671 33.0599 31.5324 31.9093 31.9682C30.5858 32.5355 29.2016 32.9477 27.784 33.1967C25.3473 33.6472 22.8483 33.6375 20.4152 33.1682C18.9868 32.8875 17.5868 32.4763 16.2329 31.9399C15.5192 31.6642 14.8252 31.3397 14.1558 30.9685C14.0706 30.9113 13.9852 30.8828 13.8998 30.8256C13.857 30.8042 13.8185 30.7753 13.786 30.74C13.274 30.4544 12.9894 30.2544 12.9894 30.2544C14.207 31.9264 15.9681 33.1187 17.9683 33.6251C17.1149 34.7109 16.0622 35.9962 16.0622 35.9962C14.3721 36.0419 12.6968 35.6698 11.1837 34.9127C9.67051 34.1555 8.3659 33.0365 7.38464 31.6542C7.47701 25.8628 8.87787 20.1681 11.4815 14.9995C13.7728 13.1926 16.5663 12.1445 19.4762 12L19.7607 12.3429C17.023 13.023 14.4682 14.3008 12.2782 16.0851C12.2782 16.0851 12.9041 15.7424 13.9566 15.2567C16.0018 14.3194 18.1814 13.712 20.4152 13.457C20.5745 13.4238 20.7363 13.4047 20.8989 13.3998C22.8055 13.1504 24.7349 13.1313 26.6461 13.3428C29.6514 13.6874 32.5605 14.619 35.2096 16.0851C33.1306 14.3859 30.7159 13.1493 28.1253 12.4572L28.5236 12.0002C31.4336 12.1446 34.2271 13.1927 36.5183 14.9997C39.1221 20.1682 40.523 25.8628 40.6154 31.6542C39.6262 33.0352 38.316 34.1526 36.7987 34.9094C35.2814 35.6661 33.6029 36.0394 31.9093 35.9964ZM18.6796 22.6556C17.9072 22.6556 17.1665 22.9637 16.6204 23.5121C16.0742 24.0605 15.7674 24.8042 15.7674 25.5797C15.7675 26.3552 16.0743 27.099 16.6204 27.6474C17.1666 28.1957 17.9073 28.5038 18.6797 28.5038C19.4521 28.5038 20.1928 28.1957 20.739 27.6474C21.2851 27.099 21.5919 26.3552 21.5919 25.5797C21.592 24.8042 21.2852 24.0605 20.739 23.5121C20.1929 22.9637 19.452 22.6556 18.6796 22.6556ZM29.0643 22.6556C28.4284 22.6015 27.7909 22.7414 27.2355 23.0571C26.6801 23.3728 26.2325 23.8495 25.9514 24.4249C25.6703 25.0002 25.5687 25.6474 25.66 26.2816C25.7513 26.9159 26.0312 27.5077 26.4631 27.9796C26.8949 28.4515 27.4586 28.7815 28.0803 28.9263C28.702 29.0712 29.3528 29.0242 29.9475 28.7915C30.5422 28.5588 31.0531 28.1513 31.4133 27.6222C31.7734 27.0931 31.9661 26.4672 31.9661 25.8264C31.9831 25.4268 31.9215 25.0278 31.7849 24.6522C31.6482 24.2765 31.4392 23.9316 31.1697 23.6371C30.9002 23.3427 30.5755 23.1044 30.2143 22.936C29.853 22.7676 29.4623 22.6723 29.0643 22.6556Z" fill="black"/>
</svg>
