<svg width="34" height="25" viewBox="0 0 34 25" fill="none" xmlns="http://www.w3.org/2000/svg">
<path d="M0 0V4.54532H2.21729V6.81804H4.43465V9.0907H6.65194V11.3634H8.86924V24.9994H14.043V22.7268H16.2603V20.4541H18.4776V18.1814H20.6949V15.9087H22.9122V13.6361H25.1296V11.3634H27.3468V9.0907H29.5641V6.81804H31.7815V4.54532H33.9988V0H0Z" fill="#BDDBFF"/>
<path d="M33.9987 0H29.5641V4.54532H25.1295V6.81804H18.4775V9.0907H14.0429V11.3634H8.86914V24.9994H14.0429V22.7268H16.2602V20.4541H18.4775V18.1814H20.6948V15.9087H22.9121V13.6361H25.1295V11.3634H27.3468V9.0907H29.5641V6.81804H31.7814V4.54532H33.9987V0Z" fill="#9BC9FF"/>
<path d="M0 0V4.54531H2.21729V2.27266H31.7815V4.54531H33.9988V0H0ZM29.5641 4.54531H31.7814V6.81797H29.5641V4.54531ZM27.3468 6.81804H29.5641V9.0907H27.3468V6.81804ZM25.1296 9.0907H27.3468V11.3634H25.1296V9.0907ZM22.9122 11.3634H25.1295V13.636H22.9122V11.3634ZM20.6949 13.6361H22.9122V15.9087H20.6949V13.6361Z" fill="#0D0D0D"/>
<path d="M18.4771 15.9096H20.6944V18.1822H18.4771V15.9096ZM16.2598 18.1822H18.4771V20.4549H16.2598V18.1822ZM14.0425 20.455H16.2598V22.7276H14.0425V20.455ZM2.2168 4.54614H4.43409V6.8188H2.2168V4.54614ZM4.43416 6.81887H6.65145V9.09153H4.43416V6.81887ZM6.65145 9.09153H8.86874V11.3642H6.65145V9.09153ZM11.0861 13.6369H14.0425V11.3642H8.86874V25.0003H14.0425V22.7276H11.0861V13.6369ZM14.0425 9.09153H18.4771V11.3642H14.0425V9.09153ZM18.4771 6.81887H22.9118V9.09153H18.4771V6.81887Z" fill="#0D0D0D"/>
</svg>
