<svg width="48" height="48" viewBox="0 0 48 48" fill="none" xmlns="http://www.w3.org/2000/svg">
<rect width="48" height="48" rx="10" fill="#FFF100"/>
<path d="M7.28996 22.5568L30.43 13.6348C31.504 13.2468 32.442 13.8968 32.094 15.5208L32.096 15.5188L28.156 34.0808C27.864 35.3968 27.082 35.7168 25.988 35.0968L19.988 30.6748L17.094 33.4628C16.774 33.7828 16.504 34.0528 15.884 34.0528L16.31 27.9468L27.43 17.9008C27.914 17.4748 27.322 17.2348 26.684 17.6588L12.942 26.3108L7.01796 24.4628C5.73196 24.0548 5.70396 23.1768 7.28996 22.5568Z" fill="black"/>
<path d="M30.8899 35.5385V30.2215H35.7932V31.2923H31.968V32.3409H35.0474V33.4191H31.968V34.4677H35.7932V35.5385H30.8899ZM36.5289 35.5385V30.2215H37.6588L40.7677 33.9286V30.2215H41.8459V35.5385H40.716L37.5923 31.8166V35.5385H36.5289Z" fill="black"/>
</svg>
