<svg width="35" height="25" viewBox="0 0 35 25" fill="none" xmlns="http://www.w3.org/2000/svg">
<g clip-path="url(#clip0_106_50)">
<path d="M6.10352e-05 0.0981445V4.60782H2.28265V6.86272H4.56531V9.11756H6.8479V11.3724H9.13048V24.9015H14.4566V22.6467H16.7392V20.3919H19.0218V18.137H21.3044V15.8821H23.587V13.6273H25.8696V11.3724H28.1522V9.11756H30.4348V6.86272H32.7175V4.60782H35.0001V0.0981445H6.10352e-05Z" fill="#BDDBFF"/>
<path d="M35 0.0981445H30.4347V4.60782H25.8695V6.86272H19.0217V9.11756H14.4565V11.3724H9.13037V24.9015H14.4565V22.6467H16.7391V20.3919H19.0217V18.137H21.3043V15.8821H23.5869V13.6273H25.8695V11.3724H28.1521V9.11756H30.4347V6.86272H32.7174V4.60782H35V0.0981445Z" fill="#9BC9FF"/>
<path d="M6.10352e-05 0.0981445V4.60782H2.28265V2.35298H32.7175V4.60782H35.0001V0.0981445H6.10352e-05ZM30.4348 4.60782H32.7174V6.86265H30.4348V4.60782ZM28.1522 6.86272H30.4348V9.11756H28.1522V6.86272ZM25.8696 9.11756H28.1522V11.3724H25.8696V9.11756ZM23.587 11.3724H25.8696V13.6272H23.587V11.3724ZM21.3044 13.6273H23.587V15.8821H21.3044V13.6273Z" fill="black"/>
<path d="M19.0215 15.8827H21.304V18.1375H19.0215V15.8827ZM16.7389 18.1375H19.0215V20.3924H16.7389V18.1375ZM14.4562 20.3925H16.7388V22.6473H14.4562V20.3925ZM2.28229 4.6084H4.56488V6.86323H2.28229V4.6084ZM4.56494 6.8633H6.84753V9.11814H4.56494V6.8633ZM6.84753 9.11814H9.13012V11.373H6.84753V9.11814ZM11.4128 13.6279H14.4562V11.373H9.13012V24.9021H14.4562V22.6473H11.4128V13.6279ZM14.4562 9.11814H19.0215V11.373H14.4562V9.11814ZM19.0215 6.8633H23.5867V9.11814H19.0215V6.8633Z" fill="black"/>
<path d="M21.9551 18.1H25.4971V18.905H22.9071V20.144H25.2941V20.935H22.9071V22.195H25.4971V23H21.9551V18.1ZM26.2002 18.1H27.0542L29.2382 21.425H29.2522V18.1H30.1692V23H29.3152L27.1312 19.682H27.1172V23H26.2002V18.1ZM31.0111 22.195V18.905L31.8161 18.1H34.2521L35.0431 18.891V19.64H34.0911V19.241L33.7621 18.912H32.3201L31.9631 19.269V21.831L32.3201 22.188H33.7761L34.1191 21.845V21.082H33.0691V20.27H35.0431V22.195L34.2381 23H31.8161L31.0111 22.195Z" fill="#FFF100"/>
</g>
<defs>
<clipPath id="clip0_106_50">
<rect width="35" height="25" fill="white"/>
</clipPath>
</defs>
</svg>
