<svg width="35" height="25" viewBox="0 0 35 25" fill="none" xmlns="http://www.w3.org/2000/svg">
<g clip-path="url(#clip0_106_57)">
<path d="M-6.10352e-05 0.0981445V4.60782H2.28253V6.86272H4.56518V9.11756H6.84777V11.3724H9.13036V24.9015H14.4564V22.6467H16.7391V20.3919H19.0217V18.137H21.3043V15.8821H23.5869V13.6273H25.8695V11.3724H28.1521V9.11756H30.4347V6.86272H32.7174V4.60782H35V0.0981445H-6.10352e-05Z" fill="#BDDBFF"/>
<path d="M34.9998 0.0981445H30.4346V4.60782H25.8694V6.86272H19.0216V9.11756H14.4563V11.3724H9.13025V24.9015H14.4563V22.6467H16.739V20.3919H19.0216V18.137H21.3042V15.8821H23.5868V13.6273H25.8694V11.3724H28.152V9.11756H30.4346V6.86272H32.7173V4.60782H34.9998V0.0981445Z" fill="#9BC9FF"/>
<path d="M-6.10352e-05 0.0981445V4.60782H2.28253V2.35298H32.7174V4.60782H35V0.0981445H-6.10352e-05ZM30.4347 4.60782H32.7173V6.86265H30.4347V4.60782ZM28.1521 6.86272H30.4347V9.11756H28.1521V6.86272ZM25.8695 9.11756H28.1521V11.3724H25.8695V9.11756ZM23.5869 11.3724H25.8695V13.6272H23.5869V11.3724ZM21.3043 13.6273H23.5869V15.8821H21.3043V13.6273Z" fill="black"/>
<path d="M19.0213 15.8827H21.3039V18.1375H19.0213V15.8827ZM16.7387 18.1375H19.0213V20.3924H16.7387V18.1375ZM14.456 20.3925H16.7386V22.6473H14.456V20.3925ZM2.2821 4.6084H4.56469V6.86323H2.2821V4.6084ZM4.56476 6.8633H6.84735V9.11814H4.56476V6.8633ZM6.84735 9.11814H9.12994V11.373H6.84735V9.11814ZM11.4126 13.6279H14.456V11.373H9.12994V24.9021H14.456V22.6473H11.4126V13.6279ZM14.456 9.11814H19.0213V11.373H14.456V9.11814ZM19.0213 6.8633H23.5865V9.11814H19.0213V6.8633Z" fill="black"/>
<path d="M27.805 21.376V23H26.853V21.593L26.433 21.124H24.907V23H23.955V18.1H27.028L27.777 18.856V20.34L27.301 20.823L27.805 21.376ZM24.907 20.34H26.594L26.839 20.095V19.143L26.594 18.898H24.907V20.34ZM28.6786 22.16V18.1H29.6306V21.831L29.9876 22.188H31.3596L31.7166 21.831V18.1H32.6686V22.16L31.8286 23H29.5186L28.6786 22.16Z" fill="#FFF100"/>
</g>
<defs>
<clipPath id="clip0_106_57">
<rect width="35" height="25" fill="white"/>
</clipPath>
</defs>
</svg>
