<svg width="48" height="48" viewBox="0 0 48 48" fill="none" xmlns="http://www.w3.org/2000/svg">
<rect width="48" height="48" rx="10" fill="#FFF100"/>
<path d="M7.28996 22.5568L30.43 13.6348C31.504 13.2468 32.442 13.8968 32.094 15.5208L32.096 15.5188L28.156 34.0808C27.864 35.3968 27.082 35.7168 25.988 35.0968L19.988 30.6748L17.094 33.4628C16.774 33.7828 16.504 34.0528 15.884 34.0528L16.31 27.9468L27.43 17.9008C27.914 17.4748 27.322 17.2348 26.684 17.6588L12.942 26.3108L7.01796 24.4628C5.73196 24.0548 5.70396 23.1768 7.28996 22.5568Z" fill="black"/>
<path d="M35.0548 34.6154L33.4819 32.7397H34.8775L36.1772 34.2831V34.6154H35.0548ZM30.8751 34.6154V29.3058H35.1212C35.3182 29.3058 35.4954 29.3551 35.6529 29.4535C35.8154 29.5471 35.9459 29.6751 36.0443 29.8375C36.1428 30 36.192 30.1772 36.192 30.3692V31.7723C36.192 31.9643 36.1428 32.1415 36.0443 32.304C35.9459 32.4615 35.8154 32.5895 35.6529 32.688C35.4954 32.7815 35.3182 32.8283 35.1212 32.8283L31.9385 32.8357V34.6154H30.8751ZM31.9828 31.7575H35.0695C35.0843 31.7575 35.0942 31.7551 35.0991 31.7502C35.1089 31.7403 35.1139 31.7305 35.1139 31.7206V30.4135C35.1139 30.3988 35.1089 30.3889 35.0991 30.384C35.0942 30.3742 35.0843 30.3692 35.0695 30.3692H31.9828C31.968 30.3692 31.9557 30.3742 31.9459 30.384C31.9409 30.3889 31.9385 30.3988 31.9385 30.4135V31.7206C31.9385 31.7305 31.9409 31.7403 31.9459 31.7502C31.9557 31.7551 31.968 31.7575 31.9828 31.7575ZM38.0175 34.6154C37.8205 34.6154 37.6408 34.5686 37.4784 34.4751C37.3208 34.3766 37.1928 34.2486 37.0944 34.0911C37.0008 33.9286 36.9541 33.7489 36.9541 33.552V29.2985H38.0175V33.5003C38.0175 33.5151 38.0199 33.5274 38.0248 33.5372C38.0347 33.5422 38.047 33.5446 38.0618 33.5446H41.1485C41.1633 33.5446 41.1731 33.5422 41.1781 33.5372C41.1879 33.5274 41.1928 33.5151 41.1928 33.5003V29.2985H42.271V33.552C42.271 33.7489 42.2218 33.9286 42.1233 34.0911C42.0248 34.2486 41.8944 34.3766 41.7319 34.4751C41.5744 34.5686 41.3996 34.6154 41.2076 34.6154H38.0175Z" fill="black"/>
</svg>
