<svg width="45" height="44" viewBox="0 0 45 44" fill="none" xmlns="http://www.w3.org/2000/svg">
<path d="M22.3242 44C34.4745 44 44.3242 34.1503 44.3242 22C44.3242 9.84974 34.4745 0 22.3242 0C10.174 0 0.324219 9.84974 0.324219 22C0.324219 34.1503 10.174 44 22.3242 44Z" fill="#0332FF"/>
<path fill-rule="evenodd" clip-rule="evenodd" d="M11.7576 14.1671L19.3425 12.9794L19.9385 12.8663V13.545V21.0668V21.6324H19.3967H11.866H11.3242V21.0668V14.7326V14.2237L11.7576 14.1671ZM21.1304 12.6967L31.2616 11.1131L31.8576 11V11.6221V21.0668V21.6324H31.3158H21.2387H20.697V21.0668V13.2622V12.7532L21.1304 12.6967ZM31.8576 22.9897V32.3779V33L31.2616 32.9434L21.1304 31.3599L20.697 31.2468V30.7943V22.9897V22.4242H21.2387H31.3158H31.8576V22.9897ZM19.3425 31.0206L11.7576 29.8329L11.3242 29.7764V29.2674V22.9897V22.4242H11.866H19.3967H19.9385V22.9897V30.455V31.1337L19.3425 31.0206Z" fill="#FEFEFE"/>
</svg>
