<svg width="28" height="25" viewBox="0 0 28 25" fill="none" xmlns="http://www.w3.org/2000/svg">
<path d="M24.3459 7.31706V3.65856H22.5198V1.82925H20.6937V0H13.998V1.82925H12.172V3.65856H10.3459V7.31706H7.91111V5.48781H5.47631V3.65856H3.65024V1.82925H-0.00195312V12.1951H1.82412V14.0244H3.65024V15.8536H5.47631V19.5122H3.65024V21.3414H1.82412V25H18.8676V23.1707H20.6937V21.3414H22.5198V19.5122H24.3459V12.8049H26.172V10.9756H27.998V7.31706H24.3459Z" fill="#2488FF"/>
<path d="M5.47631 5.48781V3.65856H3.65024V1.82925H-0.00195312V5.48781H3.65024V7.31706H5.47631V9.14636H7.91111V5.48781H5.47631ZM7.30238 15.8536V17.6829H5.47631V19.5122H3.65024V21.3414H1.82412V25H5.47631V21.3414H7.30238V19.5122H9.12851V15.8536H7.30238ZM13.998 0V1.82925H12.172V3.65856H10.3459V5.48781H13.998V3.65856H15.8241V0H13.998Z" fill="white"/>
<path d="M13.998 0H20.6937V1.82925H13.998V0ZM7.30238 17.6829H9.12851V15.8536H5.47631V19.5122H7.30238V17.6829ZM3.65024 21.3414H1.82412V25H18.8676V23.1707H3.65024V21.3414ZM12.172 1.82925H13.998V3.6585H12.172V1.82925ZM12.172 9.14636V3.65856H10.3459V7.31706H7.91111V9.14636H12.172ZM20.6937 1.82925H22.5198V3.6585H20.6937V1.82925ZM24.3459 7.31706V3.65856H22.5198V9.14636H26.172V10.9756H27.998V7.31706H24.3459ZM20.6937 19.5122H22.5198V21.3414H20.6937V19.5122ZM3.65024 19.5122H5.47631V21.3414H3.65024V19.5122ZM18.8676 21.3414H20.6937V23.1707L18.8676 23.1707V21.3414ZM24.3459 10.9756H26.1719V12.8049H24.3459V10.9756ZM22.5198 12.8049H24.3459V19.5122H22.5198V12.8049ZM5.47631 5.48781H7.91111V7.31706H5.47631V5.48781ZM3.65024 3.65856H5.47631V5.48781H3.65024V3.65856ZM3.65024 3.65856V1.82925H-0.00195312V12.1951H1.82412V3.65856H3.65024ZM1.82412 12.1951H3.65019V14.0244H1.82412V12.1951Z" fill="#0D0D0D"/>
<path d="M3.65039 14.0247H5.47646V15.8539H3.65039V14.0247Z" fill="#0D0D0D"/>
</svg>
